<svg width="23" height="23" viewBox="0 0 23 23" fill="none" xmlns="http://www.w3.org/2000/svg">
<path d="M11.0135 2.67285H7.43028C4.48341 2.67285 2.63574 4.75914 2.63574 7.71273V15.6803C2.63574 18.6339 4.47478 20.7202 7.43028 20.7202H15.8866C18.8431 20.7202 20.6821 18.6339 20.6821 15.6803V11.8201" stroke="#130F26" stroke-width="1.5" stroke-linecap="round" stroke-linejoin="round"/>
<path fill-rule="evenodd" clip-rule="evenodd" d="M8.4601 10.4658L15.6217 3.30418C16.5139 2.41293 17.9601 2.41293 18.8523 3.30418L20.0186 4.47047C20.9108 5.36268 20.9108 6.80976 20.0186 7.70101L12.8224 14.8971C12.4324 15.2872 11.9034 15.5066 11.3514 15.5066H7.76147L7.85156 11.8841C7.86497 11.3513 8.08252 10.8434 8.4601 10.4658Z" stroke="#130F26" stroke-width="1.5" stroke-linecap="round" stroke-linejoin="round"/>
<path d="M14.5334 4.41064L18.9092 8.78639" stroke="#130F26" stroke-width="1.5" stroke-linecap="round" stroke-linejoin="round"/>
</svg>
