<svg width="24" height="25" viewBox="0 0 24 25" fill="none" xmlns="http://www.w3.org/2000/svg">
<path fill-rule="evenodd" clip-rule="evenodd" d="M14.9446 4.12035C15.9482 4.5292 16.2553 5.95303 16.6656 6.41068C17.076 6.86834 17.6633 7.02395 17.9882 7.02395C19.7152 7.02395 21.1152 8.45693 21.1152 10.2235V16.1171C21.1152 18.4868 19.2372 20.409 16.922 20.409H6.92587C4.60967 20.409 2.73267 18.4868 2.73267 16.1171V10.2235C2.73267 8.45693 4.13272 7.02395 5.85969 7.02395C6.18362 7.02395 6.77086 6.86834 7.18223 6.41068C7.59261 5.95303 7.89866 4.5292 8.90224 4.12035C9.90682 3.71151 13.941 3.71151 14.9446 4.12035Z" stroke="#130F26" stroke-width="1.5" stroke-linecap="round" stroke-linejoin="round"/>
<path d="M17.3844 9.66183H17.3934" stroke="#130F26" stroke-width="2" stroke-linecap="round" stroke-linejoin="round"/>
<path fill-rule="evenodd" clip-rule="evenodd" d="M15.0825 13.3515C15.0825 11.5656 13.6686 10.1184 11.9237 10.1184C10.1789 10.1184 8.76489 11.5656 8.76489 13.3515C8.76489 15.1374 10.1789 16.5846 11.9237 16.5846C13.6686 16.5846 15.0825 15.1374 15.0825 13.3515Z" stroke="#130F26" stroke-width="1.5" stroke-linecap="round" stroke-linejoin="round"/>
</svg>
