<svg xmlns="http://www.w3.org/2000/svg" xmlns:xlink="http://www.w3.org/1999/xlink" version="1.1" width="1000" height="1000" viewBox="0 0 1000 1000" xml:space="preserve">
<g transform="matrix(1 0 0 1 500 500)" id="433167">
<g style="">
		<g transform="matrix(56.8182 0 0 56.8182 -94.3373 87.6117)" id="79399">
<path style="stroke: rgb(130,130,130); stroke-width: 1.5; stroke-dasharray: none; stroke-linecap: round; stroke-dashoffset: 0; stroke-linejoin: round; stroke-miterlimit: 4; is-custom-font: none; font-file-url: none; fill: none; fill-rule: evenodd; opacity: 1;" transform=" translate(-8.0176, -7.9589)" d="M 9.8252 1.84108 H 5.38987 C 4.0032 1.83575 2.86654 2.94108 2.83387 4.32708 V 11.4691 C 2.8032 12.8778 3.91987 14.0451 5.32854 14.0764 C 5.3492 14.0764 5.3692 14.0771 5.38987 14.0764 H 10.7159 C 12.1119 14.0198 13.2119 12.8664 13.2019 11.4691 V 5.35842 L 9.8252 1.84108 Z" stroke-linecap="round"/>
</g>
		<g transform="matrix(56.8182 0 0 56.8182 99.2345 -156.5723)" id="74011">
<path style="stroke: rgb(130,130,130); stroke-width: 1.5; stroke-dasharray: none; stroke-linecap: round; stroke-dashoffset: 0; stroke-linejoin: round; stroke-miterlimit: 4; is-custom-font: none; font-file-url: none; fill: none; fill-rule: nonzero; opacity: 1;" transform=" translate(-11.4245, -3.6612)" d="M 9.65015 1.83325 V 3.77259 C 9.65015 4.71925 10.4155 5.48659 11.3621 5.48925 H 13.1988" stroke-linecap="round"/>
</g>
		<g transform="matrix(56.8182 0 0 56.8182 94.3373 -87.1676)" id="11383">
<path style="stroke: rgb(130,130,130); stroke-width: 1.5; stroke-dasharray: none; stroke-linecap: round; stroke-dashoffset: 0; stroke-linejoin: round; stroke-miterlimit: 4; is-custom-font: none; font-file-url: none; fill: none; fill-rule: evenodd; opacity: 1;" transform=" translate(-8.0176, -7.9589)" d="M 9.8252 1.84108 H 5.38987 C 4.0032 1.83575 2.86654 2.94108 2.83387 4.32708 V 11.4691 C 2.8032 12.8778 3.91987 14.0451 5.32854 14.0764 C 5.3492 14.0764 5.3692 14.0771 5.38987 14.0764 H 10.7159 C 12.1119 14.0198 13.2119 12.8664 13.2019 11.4691 V 5.35842 L 9.8252 1.84108 Z" stroke-linecap="round"/>
</g>
		<g transform="matrix(56.8182 0 0 56.8182 287.9091 -331.3516)" id="863822">
<path style="stroke: rgb(130,130,130); stroke-width: 1.5; stroke-dasharray: none; stroke-linecap: round; stroke-dashoffset: 0; stroke-linejoin: round; stroke-miterlimit: 4; is-custom-font: none; font-file-url: none; fill: none; fill-rule: nonzero; opacity: 1;" transform=" translate(-11.4245, -3.6612)" d="M 9.65015 1.83325 V 3.77259 C 9.65015 4.71925 10.4155 5.48659 11.3621 5.48925 H 13.1988" stroke-linecap="round"/>
</g>
</g>
</g>
</svg>