<svg xmlns="http://www.w3.org/2000/svg" xmlns:xlink="http://www.w3.org/1999/xlink" version="1.1" width="1000" height="1000" viewBox="0 0 1000 1000" xml:space="preserve">
<g transform="matrix(-43.29 0 0 -43.29 489.181 350.3945)" id="521118">
<path style="stroke: rgb(19,15,38); stroke-width: 2; stroke-dasharray: none; stroke-linecap: round; stroke-dashoffset: 0; stroke-linejoin: round; stroke-miterlimit: 4; is-custom-font: none; font-file-url: none; fill: none; fill-rule: nonzero; opacity: 1;" transform=" translate(-10.2502, -7.0205)" d="M 10.2502 13.041 L 10.2502 1" stroke-linecap="round"/>
</g>
<g transform="matrix(-43.29 0 0 -43.29 489.1777 153.1302)" id="886002">
<path style="stroke: rgb(19,15,38); stroke-width: 2; stroke-dasharray: none; stroke-linecap: round; stroke-dashoffset: 0; stroke-linejoin: round; stroke-miterlimit: 4; is-custom-font: none; font-file-url: none; fill: none; fill-rule: nonzero; opacity: 1;" transform=" translate(-10.2503, -11.5773)" d="M 13.1663 10.1133 L 10.2503 13.0413 L 7.33426 10.1133" stroke-linecap="round"/>
</g>
<g transform="matrix(43.29 0 0 43.29 489.1771 629.9437)" id="598499">
<path style="stroke: rgb(19,15,38); stroke-width: 2; stroke-dasharray: none; stroke-linecap: round; stroke-dashoffset: 0; stroke-linejoin: round; stroke-miterlimit: 4; is-custom-font: none; font-file-url: none; fill: none; fill-rule: nonzero; opacity: 1;" transform=" translate(-10.25, -11.8549)" d="M 14.883 5.73291 H 15.816 C 17.851 5.73291 19.5 7.38191 19.5 9.41791 V 14.3019 C 19.5 16.3319 17.855 17.9769 15.825 17.9769 L 4.685 17.9769 C 2.65 17.9769 1 16.3269 1 14.2919 V 9.40691 C 1 7.37791 2.646 5.73291 4.675 5.73291 H 5.617" stroke-linecap="round"/>
</g>
</svg>