<svg width="17" height="17" viewBox="0 0 17 17" fill="none" xmlns="http://www.w3.org/2000/svg">
<path fill-rule="evenodd" clip-rule="evenodd" d="M1.77207 8.50018C1.77009 9.37118 1.73122 10.5592 2.27008 11.0033C2.77271 11.4175 3.12646 11.3108 4.04411 11.3781C4.96241 11.4461 6.90047 14.1455 8.39452 13.2917C9.16527 12.6856 9.22258 11.415 9.22258 8.50018C9.22258 5.5854 9.16527 4.31479 8.39452 3.70871C6.90047 2.85422 4.96241 5.55427 4.04411 5.62225C3.12646 5.68959 2.77271 5.58286 2.27008 5.99708C1.73122 6.44115 1.77009 7.62918 1.77207 8.50018Z" stroke="#828282" stroke-width="1.5" stroke-linecap="round" stroke-linejoin="round"/>
<path d="M13.8721 4.18213C15.6784 6.78243 15.6843 10.2124 13.8721 12.8178" stroke="#828282" stroke-width="1.5" stroke-linecap="round" stroke-linejoin="round"/>
<path d="M12.0991 5.8894C13.028 7.51197 13.028 9.49349 12.0991 11.111" stroke="#828282" stroke-width="1.5" stroke-linecap="round" stroke-linejoin="round"/>
</svg>
