<svg width="15" height="15" viewBox="0 0 15 15" fill="none" xmlns="http://www.w3.org/2000/svg">
<path fill-rule="evenodd" clip-rule="evenodd" d="M8.29752 1.51771L9.61732 4.30946C9.74666 4.58353 9.99633 4.77357 10.2859 4.81755L13.2383 5.26753C13.9678 5.37904 14.258 6.31512 13.7301 6.85148L11.5951 9.02363C11.3853 9.23723 11.2898 9.54429 11.3394 9.84584L11.8433 12.9124C11.9674 13.671 11.2048 14.2498 10.5528 13.8909L7.91399 12.4421C7.65529 12.2999 7.34546 12.2999 7.08601 12.4421L4.44717 13.8909C3.79517 14.2498 3.03262 13.671 3.15745 12.9124L3.66056 9.84584C3.71019 9.54429 3.61468 9.23723 3.40487 9.02363L1.26988 6.85148C0.741961 6.31512 1.03224 5.37904 1.7617 5.26753L4.71414 4.81755C5.00367 4.77357 5.25409 4.58353 5.38344 4.30946L6.70248 1.51771C7.02886 0.82743 7.97114 0.82743 8.29752 1.51771Z" stroke="#828282" stroke-width="1.5" stroke-linecap="round" stroke-linejoin="round"/>
</svg>
